<svg xmlns="http://www.w3.org/2000/svg" xml:space="preserve" viewBox="0 0 512 512"><defs><clipPath id="a" clipPathUnits="userSpaceOnUse"><path d="M0 798.86h1926.57V0H0Z"/></clipPath></defs><g clip-path="url(#a)" transform="matrix(.772 0 0 -.772 -951.24 572.34)"><path fill="#050301" d="m1582.3 465.73 7.53 7.52c-2.62 2-5.18 5.47-7.86 5.57-2.58.1-5.3-3.3-7.96-5.15l8.29-7.94m156.34-363.46c3.94-4.4 8.04-10 13.26-14.19 1.82-1.46 6.83-.14 9.6 1.34 1.28.68 1.64 5.22.78 7.36-2.83 7.03-6.32 13.8-9.77 20.57-.75 1.47-2.42 2.46-3.67 3.68-1.23-1.36-2.83-2.52-3.62-4.1-2.17-4.35-4.01-8.86-6.58-14.66m-358.9 19.24c-4.14-8.38-8.33-16.32-11.91-24.53-.9-2.08-.75-6.52.48-7.26 2.72-1.62 7.6-3.27 9.55-1.92 9.67 6.68 14.88 16.69 18.84 27.83l-16.97 5.88m315.8 364.59c-.48 4.52-.48 7.75-1.2 10.82-1.64 7.01-4.83 12.92-12.82 14.28-6.7 1.14-14-2.53-17.38-9.67a62.87 62.87 0 0 1-4.9-15.98c-1.53-8.88 3.4-17.54 11.45-21.68 8.93-4.58 17.99-1.5 21.43 7.87 1.83 4.97 2.5 10.37 3.42 14.36m-204.81 15.47c-1.4 5.65-2.17 11.56-4.33 16.9-2.47 6.1-7.65 9.38-14.5 9.55-6.83.16-11.9-3.46-13.48-9.4-2.22-8.35-4.2-17.29-3.53-25.76 1.01-12.9 13.4-17.94 24.47-10.97 7.06 4.44 11.93 10.3 11.37 19.68m327.54-131.16c7.84 4.9 11.03 13.32 7.77 22-3.29 8.77-12.13 13.85-21.07 12.1-9.3-1.83-14.73-8.39-14.77-17 9.5-5.8 18.62-11.34 28.07-17.1m-489.22-39.47c-.07 9-7.44 16.23-16.45 16.12a16.25 16.25 0 0 1-16.12-16.48c.1-8.91 7.64-16.34 16.48-16.25 8.89.1 16.16 7.6 16.1 16.6m529.33 20.16a16.36 16.36 0 0 1-16.45-16.22c0-8.82 7.52-16.35 16.39-16.4a16.27 16.27 0 0 1 16.25 16.35c0 9.22-7.02 16.27-16.2 16.27m-142.27-81.05c.11 8.94-7.2 16.3-16.26 16.39a16.13 16.13 0 0 1-16.5-16.07c-.15-8.79 7.4-16.54 16.17-16.61 8.76-.07 16.49 7.52 16.6 16.29m-45.29-148.84a16.26 16.26 0 0 1-16.2-16.39c.12-8.97 7.6-16.33 16.48-16.23 9.01.09 16.19 7.44 16.11 16.5a16.06 16.06 0 0 1-16.39 16.12m-333.78 67.94a22.9 22.9 0 0 1-22.8-22.93c.04-12.46 10.47-22.96 22.9-23.04 12.73-.08 23.23 10.63 23.05 23.5-.2 12.78-10.27 22.56-23.15 22.47m488.25 28.3c3.87-2.69 7.58-4.72 10.48-7.57 1.26-1.25.87-4.19 1.22-6.36-2.12.12-4.32-.07-6.34.46-1.29.34-2.22 1.87-3.46 2.65-6.21 3.95-13.68 3.57-19.12-1.3-5.4-4.82-7.47-10.8-4.9-17.9a15.93 15.93 0 0 1 15.88-10.8c8.22.2 13.3 5.14 15.77 14.65.51 1.96 2.6 3.5 3.97 5.24 1.4-1.39 3.56-2.55 4.05-4.21 1.79-6.03 5.2-8.1 10-4.28 2.81 2.25 5.7 7 5.22 10.13-.53 3.5-4.65 6.6-7.51 9.58-1.91 2-4.36 3.46-6.56 5.17 2.89.9 5.77 1.83 8.67 2.68.65.19 1.37.12 2.58.2-1.82 6.99-6.31 10.45-12.8 11.45-7.83 1.2-13-1.83-17.15-9.78m-130.46-60.65c-4.27 9.89-13.59 14.07-22.8 10.47-8.84-3.46-13.32-13.04-10.38-22.3.37-1.16 1.38-2.34 1.24-3.4-.25-1.91-1.15-3.74-1.78-5.61-1.83.83-4.42 1.18-5.32 2.6a18.22 18.22 0 0 0-2.72 8.24c-.31 4.84-2.9 5.49-6.87 5.13-9.06-.81-17.07-8.5-18.1-17.59-1.1-9.66 4.87-19.34 13.91-21.6 1.91-.47 5.63.65 6.4 2.14 6.03 11.53 15.7 15.53 25.82 14.67l8.33 6.04c.94-2.45 1.7-5 2.84-7.35 4.05-8.33 8.09-16.67 12.5-24.8.77-1.4 3.32-1.98 5.16-2.63 13.5-4.77 28.65 2.42 33.65 15.9 4.9 13.24-1.45 28.3-14.58 33.6-10.48 4.22-20.1 2.3-28.84-4.98-1.4-1.17-4.17-.67-6.31-.94.4 2.3.13 5.06 1.34 6.8 1.6 2.3 4.33 3.82 6.5 5.61m85.36 233.56c3.28 5.01 5.79 11.8 10.65 15.53 6.28 4.82 6.2 9.76 4.52 15.93-6.29 23.02-30.85 33.3-52.93 22.43-2.15-1.06-5.17-.36-7.79-.48 1.29 2.46 1.95 6.02 3.98 7.16 4.4 2.46 9.4 4.12 14.36 5.27 3.84.9 4.6 2.65 4.17 6.16a21.09 21.09 0 0 1-21.94 18.52c-3.75-.14-5.55-1.45-6.5-5.27-3.1-12.58-6.7-25.03-9.95-37.57-.43-1.7.12-3.64.15-4.3l9.17 3.37c-.21-3.05-.27-6.13-.68-9.15-.49-3.56-2.26-7.21-1.77-10.59 1.52-10.6 3.84-21.08 5.64-30.54l48.92 3.53m-400.57 2.28c2 2.82 3.2 5.07 4.98 6.64.49.43 3.8-.9 4.04-1.87 2.03-8.04 9.36-7.78 13.81-10 .7 11.68.17 23.6 2.47 34.93 2.3 11.27 7.45 21.96 11.44 33.15-1.64.42-4.02.53-5.8 1.63-1.82 1.12-3.04 3.2-4.52 4.87 2.13.94 4.21 2.44 6.42 2.68 2.95.31 6-.35 8.5-.55v39.5c-10.36 1.16-18.89-3.71-21-12.87-1.13-4.89.5-10.4.76-15.63.12-2.23-.06-4.47-.1-6.7-2.08.46-4.18.86-6.24 1.4-1.74.46-3.49 1.7-5.14 1.54-13.5-1.3-26.01-13.44-28.91-27.74-2.82-13.93 2.15-23.92 15.23-31.97 2.2-1.35 3.2-4.66 4.76-7.06-2.71-.04-5.45-.3-8.13-.03-1.36.13-2.59 1.36-3.97 1.83-9.75 3.34-18.48 1.47-25.67-5.86-6.2-6.33-8.07-13.92-5.49-23.29 13.24 9.93 27.13 15.48 42.56 15.4m107.73 255.09c-.88 19.44-7.47 38.42-16.68 48.52-7.35 8.07-16.33 10.85-26.65 7.61-9.93-3.11-14.2-11.2-14.81-20.84a157.2 157.2 0 0 1 .68-25.68c1.27-12.58 1.44-24.92-2.47-37.15a55.64 55.64 0 0 1-2.45-12.96c-.64-9.09 2.97-15.7 9.54-18.21 7.89-3.03 13.83.5 18.91 6.1 3.13 3.46 5.78 7.33 8.9 10.8 2.6 2.89 5.2 6.09 8.46 8.06 12.88 7.77 17.27 19.44 16.57 33.75m197.3-29.54c2.14-4.54 4.82-11.76 8.76-18.21 4.66-7.64 10.43-14.6 15.68-21.9 1.57-2.18 2.81-4.62 4.51-6.69 3.96-4.8 8.9-7.86 15.38-6.5 6.4 1.36 10.62 5.65 11.5 11.94.92 6.7.5 13.6.83 20.4.43 8.73.35 17.56 1.7 26.15 1.57 10.12 4.95 19.94 6.63 30.05 2.09 12.6-2.66 22.44-11.83 26.9-9.84 4.8-20.7 2.88-29.54-6.08-14.4-14.57-20.65-32.85-23.62-56.06m-122.77 45.95c-10.3-.6-17.1-6.5-18.84-15.82-1.57-8.35 3.4-17.4 11.53-20.98 8.42-3.7 12.67-2.1 16.31 6.19 7.83 17.78 29.79 24.69 45.72 14.05 2.03-1.36 2.63-4.87 3.89-7.39-2.53.12-5.09.06-7.58.42-1.13.16-2.1 1.26-3.22 1.71-8.92 3.58-17.37 2.8-24.86-3.4-7.26-6.03-9.9-14.07-7.84-23.13 2.14-9.34 8.15-15.47 17.7-17.68 15.23-3.51 28.02 7.3 28.96 24.02.13 2.28 2.41 4.43 3.7 6.64 1.33-2.27 3.65-4.5 3.77-6.83.24-4.52-.77-9.11-1.29-13.96 9.3-4.17 17.87-3.01 25.32 3.57 7.18 6.34 9.9 14.47 7.1 23.93-3.16 10.67-10.83 15.74-21.46 17.45-1.82.29-3.3 2.62-4.95 4.01 1.57 1.21 3.07 2.51 4.73 3.59.71.47 1.73.47 2.8.73-.64 7.51-4.7 12.21-11.05 14.58-6.91 2.57-13.48 1.52-17.36-4.5l-1.51-8.93c-2.43 1.46-5.35 2.47-7.2 4.47-5.6 6.03-12.15 9.3-20.33 7.7-8.69-1.71-14.05-7.23-16.84-15.7-.72-2.2-3.4-3.76-5.17-5.6-.82 2.45-1.75 4.89-2.41 7.39-.23.87.19 1.91.38 3.47m-203.1-360.7 1.72 9.42c2.3-1.15 5.06-1.83 6.8-3.56 5.83-5.81 12.35-4.96 19.1-2.6 6.44 2.26 7.72 7.31 7.5 13.56-.1 2.37 1.68 4.8 2.6 7.21 1.6-1.7 3.01-3.66 4.85-5.04 1.98-1.47 4.5-3.59 6.56-3.35 7.93.9 13.08 8.17 13.82 18.32 1.53 21.06-15.19 43.05-35.6 46.83-21.87 4.04-49.03-10.8-54.74-30.26a12 12 0 0 1 1.17-8.66c4.4-7.16 5.57-14.4 3.43-22.5-.55-2.06-.38-4.96.7-6.7 5.3-8.4 12.78-13.18 22.08-12.67m393.41 12.14c1.72 4.3 2.5 9.95 4.42 10.36 6.03 1.3 4.33-4.9 5.56-8.1 2.44-6.38 6.53-10.11 13.68-10.16 6.78-.05 11.79 2.24 14.7 8.8.63 1.42 3.28 1.95 5 2.88.75-1.64 1.86-3.22 2.14-4.94.24-1.42-.51-3-.85-4.6 12.46-.11 20.25 5.73 23.16 16.89 5.11 19.64-4.93 40.03-24.78 48.83-20.26 8.98-41.05 8-61.8 1.45-1.66-.52-3.72-1.94-4.3-3.45-4.69-12.1-9.06-24.32-13.42-36.22h6.13c1 4.86 1.51 9.29 2.93 13.4.5 1.43 3.23 2.08 4.93 3.08.85-1.75 2.2-3.45 2.41-5.28.22-1.83-.89-3.78-1.09-5.7-1.61-15.47 8.48-27.7 21.18-27.24m-338.57 64.76c8.34-12.8 13.24-27.47 28.88-33.99 16.84-7.01 34.27-8.36 52-6.56 10.48 1.07 19.74-.56 28.76-6.15 19.76-12.24 40.7-15.19 63.54-9.02 9.33 2.52 19.93 2.2 29.67.93 17.77-2.3 35.32-5.96 53.36-2.86 20.63 3.54 36.2 13.72 45.04 32.92l-19.83 10.72c-7.91-22.4-23.25-35.4-47.48-36.06-20.83-.57-38.16 7.32-51.94 23.14-4.65 5.33-9.85 10.22-15.07 15-6.22 5.7-12.74 11.05-19.4 16.78-3.79-2.6-8.82-6.47-14.25-9.67-11.15-6.59-22.8-12.35-33.7-19.3-13.7-8.75-28.3-10.95-43.72-7.35-20.52 4.8-34.51 16.7-38.12 38.52l-17.74-7.05M1568 616.95c-16.05 3.93-28.27-2.36-37.74-13.57-5.4-6.4-9.66-14.26-12.56-22.15-5.95-16.19-5.73-33.17-4.02-50.2 1.12-11.2 1.7-22.48 2.15-33.74.16-3.91-.82-7.87-1.54-13.97 16.8 17.29 34.56 27.7 57.3 26.68 22.44-1 40.85-10.09 53.9-27.7 1.35 13.27 2.68 26.4 4.03 39.52 1.5 14.6 3.93 29.18 4.28 43.8.28 11.77-3.5 23.04-10.86 32.79-21.67-17.32-48.72-8.47-54.95 18.54m-238.8-304.82c-1.98-1.14-3.62-2.18-5.34-3.04-12.95-6.5-28.8-.99-33.36 12.75-2.16 6.5-5.31 7.73-11.03 7.05-2.67-.31-5.67.6-8.02-.32-2.36-.92-5.32-3.1-5.92-5.3-5.78-21.19 3-35.9 24.28-41.06a62.54 62.54 0 0 1 14.56-1.96c122.55-.11 245.11-.12 367.67.07 2.58 0 5.93 1.9 7.6 3.97 10.97 13.66 29.03 13.8 39.88.33 1.8-2.23 5.4-4.25 8.18-4.28 32.42-.3 64.85-.71 97.25.14 9.48.25 19.34 3.32 28.14 7.13 9.74 4.2 13.12 13.2 11.12 23.38-12-1.75-21.55 2.04-27.8 13.05-1.1 1.96-3.52 3.19-5.34 4.76-1.26-1.8-3.07-3.42-3.69-5.42-3.9-12.61-12.46-19.74-25.33-21.5-8.38-1.15-16.87-2.34-25.27-2.08-5.07.15-10.04 3.04-15.06 4.7-2.43.8-4.85 2.23-7.29 2.26-11.56.13-20.34 5.16-26.4 14.74-2.64 4.15-4.17 8.77-10.72 7.44-4.94-1-11.18.62-14.9-1.85-21.1-13.99-44.21-14.73-68.07-12.2-15.92 1.69-31.45 7.47-47.94 2.07-23.12-7.58-44.99-2.98-65.8 8.82a23.77 23.77 0 0 1-11.02 2.93c-24.31.25-48.63.03-72.94.21-5.25.04-9.12-.38-11.38-6.3-1.27-3.34-4.68-7.34-7.9-8.22-10.27-2.8-18.15-10.07-27.25-13.9-10.88-4.57-24.17-4.43-36.41-4.44-10.68-.01-18.21 7.5-24.5 16.07m359.7 70.92c.36 12.78-4.4 23.68-12.9 32.76-6.86 7.33-14.34 14.11-21.84 20.8-13.43 11.99-25.42 25-35.49 40.13-4.93 7.4-12.67 13.93-20.57 18.2-24.3 13.12-50.85 9.2-71.12-10.7-14.55-14.28-30.93-25.59-48.37-35.76a201.67 201.67 0 0 1-19.02-12.56c-8.89-6.64-15.34-15.31-18.12-26.15-4.27-16.59-3.89-32.34 10.73-44.36 14.81-12.2 38.06-13.49 54.64-3.68 12.41 7.35 25.07 14.27 37.63 21.38 7.94 4.5 14.8 10 15.78 19.88 1.18 11.96 1.89 23.97 3.01 35.94.35 3.65-1.04 5.17-4.03 7.38-6.74 5-14 10.3-18.47 17.16-7.17 11-2.13 22.75 10.3 27.13 14.12 4.98 28.1 3.93 41.43-2.75 11.28-5.65 14.48-17.03 8.17-27.98-5.27-9.15-13.79-14.04-23.77-15.73-4.98-.84-5.86-3.2-6.15-7.25-.8-11.01-1.84-22.01-2.63-33.03-.83-11.55 3.74-20.24 13.43-26.8 5.82-3.95 10.95-8.98 16.11-13.82 4.3-4.02 7.67-9.14 12.32-12.61 16.82-12.59 35.48-17.18 55.27-8.34 17.17 7.68 23.4 22.76 23.66 40.76m35.8-110.83c-2.87-17.47-11.05-26.01-24.5-26.24-13.99-.24-22.03 7.81-25.76 26.17h-378.27c4.13-27.87 10.3-54.85 22.5-80.24 18.52 8.2 32.62 6.17 42.5-5.79 10.27-12.42 9.6-25.77-2.18-42.92.22-.42.34-.99.7-1.24a72.3 72.3 0 0 1 4.83-3.34c21.82-13.48 45.68-20.4 71.22-20.51 59.67-.28 119.34-.07 179.01-.07h7.3c0 1.48.2 2.28-.04 2.9-8.35 21.19 9.61 41.52 28.9 39.07 1.6-.2 4.08 2 5.22 3.7 11.45 17.13 33.43 17.38 44.53.15 2.07-3.22 3.9-3.94 7.58-3.55 11.17 1.19 21.28-2.17 28.44-10.76 4.7-5.62 7.51-12.8 11.51-19.9 21.98 9.1 40.12 24.08 53.65 44.63-11.84 16.69-9.43 34.5 6.6 40.3 9.67 3.5 14.08 11.38 16.94 18.39 4.97 12.18 6.25 25.86 9.15 39.25zm110.81-35.9c3.99-.59 7.8-.23 10.57-1.77 5.2-2.89 12.2-5.9 14.09-10.61a82.37 82.37 0 0 0 6-29.65c.05-10.72-11.02-17.15-22.52-15.66-2.15.27-5.18-.45-6.67-1.9-6.86-6.6-14.48-9.7-24.1-7.66-1.85.4-5.06-.57-6.08-2-12.57-17.81-28.64-31.51-49.02-42.06 4.04-8.4 7.82-16.52 11.85-24.51 3.75-7.43 3.22-12.13-2.33-17.07-6.7-5.94-14.07-7.16-20-2.13-5.53 4.7-10.2 10.43-15.32 15.79-17.12-7.39-21.28-7.58-36.3-2.12-5.84-4.6-10.52-9.98-16.43-12.6-12.82-5.67-27.57 1.96-31.48 15.7-1.1 3.87-3.17 4.9-6.35 6.7-13.24 7.5-27.5 5.5-41.53 5.52-54.27.09-108.54-.11-162.8.12-10.5.04-20.99 1.51-32.5 2.41-1.05-2.33-2.08-5.86-4.06-8.75-4.96-7.23-9.64-14.86-15.75-21.04-7.56-7.64-19.1-5.98-24.33 3.47-1.94 3.5-1.43 9.49.08 13.55 3.11 8.4 7.66 16.27 11.65 24.43-6.92 4.45-12.97 8.6-19.3 12.23-1.59.9-4.25.55-6.21.03-13.45-3.56-25.06-.5-33.67 10.42-8.39 10.65-8.67 22.42-2.73 34.6 1.08 2.21 1.34 5.72.35 7.9-10.98 24.34-17.5 49.92-21.46 76.2-.88 5.83-2.91 9.18-9.03 11.35-16.47 5.85-23.2 16.3-23.25 33.54 0 2.7-.03 5.4 0 8.1.19 12.63 5.32 17.76 17.98 17.94 2.2.03 4.44.2 6.62-.05 4.89-.54 7.8.91 10.24 5.79 5.36 10.7 14.94 13.9 30.37 11.5 2.44 4.72 4.97 9.43 7.27 14.24.56 1.19.73 2.8.5 4.1-4.45 25.17 2.07 36.08 26.44 44.06-13.51 31.91 5.22 58.8 33.48 63.53 5.4 25.55 9.13 29.53 31.06 33.49l8.78 43.06c-23.44 8.01-31.78 21.37-27.25 46.6 4.22 23.53 7.22 46.91 4.95 70.93-.83 8.83.28 18.27 2.53 26.9 6.63 25.49 34.4 38.94 58.84 29.03 19.91-8.07 31.54-24.3 38.07-43.55 5.15-15.17 7.2-31.4 10.54-47.17.44-2.1.43-4.28.66-6.7l17.63 2.63c0 5.94-.8 11.41.17 16.55 2.26 11.95 13.28 20.23 26.07 21.06 2.88.19 6.2 1.13 8.42 2.88 10.07 7.97 20.66 9.1 32.44 4.28 2.31-.95 6.1-.72 8.18.59 16.92 10.59 36.88 1.8 41.06-17.53 1-4.57 6.2-8.24 9.83-12.79 5.11 9.5 8.55 18.07 13.87 25.24 6.51 8.77 13.68 17.54 22.2 24.25 16.15 12.72 34.3 15.34 52.86 4.61 18.93-10.92 23.52-28.47 21.25-48.7-.74-6.56-2.77-12.97-3.53-19.53a1715.25 1715.25 0 0 1-4.87-48.11c-.79-9.02-.14-18.23-1.6-27.11-2.62-16.05-12.33-24.98-28.19-27.7-1.4-.25-2.8-.66-3.98-.95.65-14.43 1.28-28.53 1.93-42.62 23.68-2.48 31.5-9.9 34.01-32.63 23.2-4.98 36.61-19.26 39.3-43.78 14.04-.08 24.91-5.68 29.1-19.76 3.8-12.79-1.46-22.96-11.09-30.5 1.92-6.87 3.58-13.22 5.5-19.48.68-2.25 2-4.31 3.03-6.46 1.22 1.82 2.85 3.49 3.61 5.48 4.1 10.85 14.3 17.8 25.03 16.8a24.69 24.69 0 0 0 22.25-20.33c1.4-7.74-1.14-14.38-5.93-20.52-1.79-2.29-3.24-5.47-3.37-8.32-.78-17.57-7.14-27.16-23.78-33.19-5.39-1.95-7.53-4.64-8.23-10.32-1.26-10.11-3.66-20.08-5.62-30.26"/><path fill="#050301" d="M1302.69 428.87a24.3 24.3 0 0 1 24.52 23.43c.4 13.16-10.82 24.6-24.14 24.6-13.07-.01-24.02-10.84-24.13-23.85-.1-13.03 10.66-24 23.75-24.18m-31.5 23.95c-.04 17.7 13.87 31.9 31.43 32.08a31.8 31.8 0 0 0 32.36-31.96 31.91 31.91 0 0 0-31.47-32.18c-17.83-.3-32.27 14.03-32.32 32.06M1627.6 698.6a17.56 17.56 0 0 1 17.63 16.99c.25 9.32-7.51 17.5-16.89 17.76a17.48 17.48 0 0 1-17.93-17.4c0-9.46 7.75-17.27 17.2-17.35m-25.11 17.61c.18 14.45 11.62 25.46 26.1 25.12 13.88-.33 24.77-11.86 24.53-25.96a25.17 25.17 0 0 0-25.74-24.76 25.15 25.15 0 0 0-24.9 25.6M1806.32 503.23c.13 8.37-6.95 15.54-15.36 15.58a15.6 15.6 0 0 1-15.42-15.52c.09-8.05 6.91-15 15-15.27 8.25-.27 15.66 6.87 15.78 15.2m-15.22 23.46a22.93 22.93 0 0 0 23.06-23.4 22.88 22.88 0 0 0-23.4-23.04c-13.14.12-23.12 10.26-23.04 23.39a22.88 22.88 0 0 0 23.38 23.05M1840.9 444.36a11.84 11.84 0 0 1-11.29 12.16c-6.34.2-11.83-5.02-12.03-11.44a11.5 11.5 0 0 1 11.3-11.98c6.65-.15 11.83 4.7 12.01 11.26m-31.4 1.28c.52 11.15 9.89 19.38 21.27 18.7 10.67-.63 18.97-10.17 18.25-20.98-.7-10.65-10.41-19.25-20.9-18.51-10.77.75-19.14 10.09-18.63 20.8M1271.75 188.31c-.04 5.52-4.36 9.74-9.88 9.43-5.77-.33-8.9-3.74-9.37-9.3-.43-5.13 4.43-9.92 9.61-9.97a9.65 9.65 0 0 1 9.64 9.84m-9.65-17.72c-10.03.09-17.54 7.71-17.47 17.75a17.66 17.66 0 0 0 17.7 17.7c9.56-.1 17.73-8.38 17.7-17.95-.02-9.66-8.14-17.58-17.93-17.5M1362.04 564.48c-5.8.02-10.05-4.13-10-9.27.07-5.8 3.32-9.07 8.91-9.61 5.28-.52 9.8 4.16 9.61 9.61-.2 5.88-3.77 8.58-8.52 9.27m-.95-26.75a17.27 17.27 0 0 0-17.3 17.17 17.3 17.3 0 0 0 17.73 17.49 17.38 17.38 0 0 0 17.34-17.2c.11-9.73-7.86-17.56-17.77-17.46"/><path fill="#fff" d="m1777.6 184.94-.9 3.21c-2.26.2-5.32 1.43-6.64.41-3.6-2.8-6.58-6.43-9.54-9.97a4.41 4.41 0 0 1-.48-3.92c.49-1.02 2.9-2.33 3.26-2.03 4.89 3.95 9.56 8.16 14.3 12.3m24.89 56.32-5.1 6.57c-1.5-1.53-3.76-2.8-4.42-4.63-4.85-13.5-9.48-27.08-13.88-40.73-.6-1.85.53-4.25.85-6.4 1.99.89 5.17 1.28 5.78 2.74 5.78 13.9 11.12 27.97 16.77 42.45m-77.8 30.96h109.83c-2.9-13.4-4.18-27.07-9.15-39.25-2.86-7.01-7.27-14.9-16.94-18.39-16.03-5.8-18.44-23.61-6.6-40.3-13.53-20.55-31.67-35.53-53.65-44.63-4 7.1-6.82 14.27-11.5 19.9-7.17 8.6-17.28 11.95-28.45 10.76-3.67-.39-5.5.33-7.58 3.55-11.1 17.23-33.08 16.98-44.53-.15-1.14-1.7-3.63-3.9-5.22-3.7-19.29 2.45-37.25-17.88-28.9-39.07.25-.62.03-1.43.03-2.9h-7.29c-59.67 0-119.34-.2-179 .07-25.55.12-49.4 7.03-71.23 20.51a71.92 71.92 0 0 0-4.84 3.34c-.35.25-.47.82-.68 1.25 11.77 17.14 12.44 30.49 2.17 42.91-9.88 11.96-23.98 13.99-42.5 5.79-12.2 25.39-18.37 52.37-22.5 80.24h378.27c3.73-18.36 11.77-26.41 25.76-26.17 13.45.23 21.63 8.77 24.5 26.24M1510.43 417.55c-4.2 2.68-7 5.78-8.82 5.28-2.44-.67-4.11-4.12-6.12-6.37 2.2-1.8 4.36-4.94 6.61-5.02 2.15-.07 4.4 3.05 8.33 6.11m82.42 17.36c-2.86-4.1-6.08-6.76-5.65-8.56.58-2.45 3.94-4.24 6.1-6.31 1.9 2.1 5.12 4.08 5.3 6.33.19 2.1-2.84 4.48-5.75 8.54m-45.65-2.32c-4.25 2.9-6.95 6.1-8.74 5.65-2.45-.61-5.37-3.77-5.83-6.26-.3-1.56 3.57-5.45 5.58-5.46 2.37-.02 4.77 3.03 8.99 6.07m81.65-33.03c2.76 4.24 5.7 6.78 5.43 8.9-.3 2.23-3.66 4.06-5.69 6.06-2.1-2.17-5.42-4.1-5.9-6.6-.35-1.8 3.04-4.35 6.16-8.36m-102.6 1.6c3 4.13 6.06 6.49 5.92 8.64-.15 2.3-3.32 4.4-5.17 6.6-2.2-2.09-5.62-3.87-6.23-6.34-.46-1.86 2.68-4.61 5.48-8.9m76.38-7.1c3.2 4.12 6.5 6.54 6.25 8.5-.32 2.51-3.51 4.66-5.47 6.96-2.1-1.92-5.7-3.69-5.9-5.78-.22-2.43 2.54-5.13 5.12-9.67m-87.16 58.2c-3.16-4.05-6.5-6.5-6.23-8.43.36-2.53 3.57-4.65 5.56-6.95 2.15 1.9 5.85 3.67 6.04 5.75.21 2.42-2.67 5.1-5.37 9.63m101.12-7.93c-2.72-4.24-5.68-6.84-5.58-9.32.08-2.05 3.76-3.96 5.85-5.94 2.1 2.23 5.48 4.25 5.88 6.74.31 1.96-3.08 4.5-6.15 8.52m72.3-61.29c-.26-18-6.49-33.08-23.66-40.76-19.79-8.84-38.45-4.25-55.27 8.34-4.65 3.47-8.03 8.6-12.32 12.61-5.16 4.84-10.29 9.87-16.1 13.81-9.7 6.57-14.27 15.26-13.44 26.81.8 11.02 1.83 22.02 2.63 33.03.29 4.06 1.17 6.4 6.15 7.25 9.98 1.7 18.5 6.58 23.77 15.73 6.31 10.95 3.1 22.32-8.17 27.97-13.34 6.7-27.31 7.73-41.42 2.76-12.44-4.38-17.48-16.12-10.3-27.13 4.46-6.86 11.72-12.16 18.46-17.16 3-2.21 4.38-3.73 4.03-7.38-1.12-11.97-1.83-23.98-3-35.94-.99-9.88-7.85-15.38-15.8-19.88-12.55-7.11-25.2-14.03-37.62-21.38-16.58-9.8-39.83-8.52-54.64 3.68-14.62 12.02-15 27.77-10.73 44.36 2.78 10.84 9.23 19.5 18.12 26.14a201.86 201.86 0 0 0 19.02 12.57c17.44 10.17 33.82 21.48 48.37 35.77 20.27 19.9 46.82 23.8 71.12 10.68 7.9-4.26 15.64-10.79 20.57-18.2 10.07-15.11 22.06-28.13 35.49-40.12 7.5-6.69 14.98-13.47 21.84-20.8 8.5-9.09 13.26-19.98 12.9-32.76M1329.2 312.13c6.28-8.56 13.8-16.08 24.49-16.07 12.24 0 25.53-.13 36.41 4.45 9.1 3.82 16.99 11.1 27.26 13.9 3.21.87 6.62 4.87 7.9 8.21 2.25 5.92 6.12 6.34 11.37 6.3 24.31-.18 48.63.04 72.94-.21 3.7-.04 7.8-1.11 11.01-2.93 20.82-11.8 42.69-16.4 65.8-8.82 16.5 5.4 32.03-.38 47.95-2.07 23.86-2.53 46.97-1.79 68.07 12.2 3.72 2.47 9.96.85 14.9 1.85 6.55 1.33 8.08-3.29 10.72-7.44 6.06-9.58 14.84-14.6 26.4-14.74 2.44-.03 4.86-1.47 7.29-2.27 5.02-1.65 10-4.54 15.06-4.7 8.4-.25 16.9.94 25.27 2.09 12.87 1.76 21.43 8.9 25.34 21.5.61 2 2.42 3.62 3.68 5.42 1.82-1.57 4.23-2.8 5.35-4.76 6.24-11 15.8-14.8 27.8-13.05 2-10.18-1.39-19.17-11.13-23.38-8.8-3.8-18.66-6.88-28.14-7.13-32.4-.85-64.83-.43-97.25-.14-2.78.03-6.38 2.05-8.18 4.28-10.85 13.46-28.91 13.33-39.89-.33-1.66-2.07-5.01-3.97-7.59-3.97-122.56-.2-245.12-.18-367.67-.07-4.86 0-9.82.8-14.56 1.96-21.29 5.16-30.06 19.87-24.28 41.06.6 2.2 3.56 4.38 5.92 5.3 2.35.92 5.35 0 8.02.32 5.72.68 8.87-.56 11.03-7.05 4.56-13.74 20.4-19.25 33.36-12.75 1.73.86 3.36 1.9 5.34 3.04"/><path fill="#fff" d="M1606.25 516.66c-2.43 2.96-3.24 4.46-4.48 5.4-11.83 8.91-43.24 10.43-55.98 2.53-1.47-.92-1.97-3.39-2.93-5.14 1.86-.7 4.13-2.45 5.51-1.92 17.03 6.52 33.53 5.88 49.9-2.25 1.58-.78 4.26.67 7.98 1.38M1568 616.96c6.23-27.02 33.28-35.87 54.95-18.55 7.36-9.75 11.14-21.02 10.86-32.78-.35-14.63-2.77-29.2-4.28-43.8-1.35-13.13-2.68-26.26-4.03-39.53-13.05 17.61-31.46 26.7-53.9 27.7-22.74 1.01-40.5-9.4-57.3-26.68.72 6.1 1.7 10.06 1.54 13.97a560.65 560.65 0 0 1-2.15 33.74c-1.7 17.03-1.93 34.01 4.02 50.2 2.9 7.9 7.17 15.75 12.56 22.15 9.47 11.21 21.69 17.5 37.73 13.57M1413.6 380.34l17.74 7.05c3.6-21.83 17.6-33.72 38.12-38.52 15.42-3.6 30.01-1.4 43.72 7.34 10.9 6.96 22.55 12.72 33.7 19.3 5.43 3.21 10.46 7.08 14.26 9.68 6.65-5.73 13.17-11.08 19.39-16.77 5.22-4.79 10.42-9.68 15.07-15.01 13.78-15.82 31.11-23.71 51.94-23.14 24.23.66 39.57 13.66 47.48 36.06 6.45-3.5 12.88-6.96 19.83-10.72-8.84-19.2-24.4-29.38-45.04-32.92-18.04-3.1-35.6.55-53.36 2.86-9.74 1.27-20.34 1.59-29.67-.93-22.84-6.17-43.78-3.22-63.54 9.02-9.02 5.6-18.28 7.22-28.77 6.15-17.72-1.8-35.15-.45-51.99 6.56-15.64 6.52-20.54 21.2-28.88 33.99M1752.17 315.58c-12.7-.47-22.8 11.77-21.18 27.23.2 1.93 1.3 3.87 1.1 5.7-.22 1.84-1.57 3.54-2.42 5.3-1.7-1.01-4.43-1.66-4.93-3.09-1.42-4.11-1.94-8.54-2.93-13.4h-6.13c4.36 11.9 8.73 24.12 13.42 36.22.58 1.5 2.64 2.93 4.3 3.45 20.75 6.54 41.54 7.53 61.8-1.45 19.85-8.8 29.9-29.19 24.78-48.83-2.9-11.16-10.7-17-23.16-16.89.34 1.6 1.09 3.18.85 4.6-.28 1.72-1.39 3.3-2.14 4.94-1.72-.93-4.37-1.46-5-2.87-2.91-6.57-7.92-8.86-14.7-8.81-7.15.05-11.24 3.78-13.68 10.16-1.23 3.2.47 9.4-5.56 8.1-1.92-.4-2.7-6.06-4.42-10.36M1358.76 303.44c-9.3-.51-16.78 4.27-22.07 12.68-1.1 1.73-1.26 4.63-.71 6.7 2.14 8.08.97 15.33-3.43 22.49a12 12 0 0 0-1.17 8.66c5.71 19.47 32.87 34.3 54.73 30.26 20.42-3.78 37.14-25.77 35.6-46.83-.73-10.15-5.88-17.42-13.81-18.32-2.05-.24-4.58 1.88-6.56 3.35-1.84 1.38-3.24 3.34-4.84 5.04-.93-2.4-2.7-4.84-2.62-7.21.23-6.25-1.05-11.3-7.5-13.56-6.74-2.36-13.26-3.21-19.1 2.6-1.73 1.73-4.5 2.4-6.79 3.56l-1.73-9.42"/><path fill="#c0ebf5" d="M1613.28 621.53c1.36 2 2.93 3.76 2.7 4.06a157.07 157.07 0 0 1-9.7 10.77c-.1.1-1.95-1.52-2.98-2.35l9.98-12.48m27.3 24.75-3.45-1.96c1.3-1.37 2.39-3.6 3.92-3.96 5.7-1.32 8.76-4.6 10-10.25.3-1.39 2.3-2.4 3.52-3.6.77 1.56 2.25 3.14 2.2 4.67-.26 7.32-7.27 14.26-16.2 15.1m-78.7 17.86c-.2-1.56-.61-2.6-.38-3.47.66-2.5 1.59-4.94 2.4-7.4 1.78 1.85 4.46 3.41 5.18 5.6 2.79 8.48 8.15 14 16.84 15.7 8.18 1.6 14.73-1.66 20.32-7.69 1.86-2 4.78-3.01 7.2-4.47l1.52 8.93c3.88 6.02 10.45 7.07 17.36 4.5 6.34-2.37 10.4-7.07 11.05-14.58-1.07-.26-2.09-.26-2.8-.73-1.65-1.08-3.16-2.38-4.73-3.59 1.64-1.39 3.13-3.72 4.95-4.01 10.63-1.71 18.3-6.78 21.46-17.45 2.8-9.46.08-17.6-7.1-23.93-7.45-6.58-16.02-7.74-25.32-3.57.52 4.85 1.53 9.44 1.3 13.96-.13 2.33-2.45 4.56-3.78 6.83-1.29-2.2-3.57-4.36-3.7-6.64-.94-16.72-13.72-27.53-28.96-24.02-9.55 2.2-15.56 8.34-17.7 17.68-2.07 9.06.58 17.1 7.84 23.12 7.5 6.21 15.94 6.99 24.86 3.41 1.13-.45 2.09-1.55 3.22-1.71 2.5-.36 5.05-.3 7.58-.42-1.26 2.52-1.86 6.03-3.9 7.4-15.92 10.63-37.88 3.72-45.7-14.06-3.65-8.28-7.9-9.9-16.32-6.19-8.12 3.57-13.1 12.63-11.53 20.98 1.75 9.31 8.55 15.22 18.84 15.82"/><path fill="#fff" d="M1684.64 618.19c2.97 23.21 9.23 41.49 23.62 56.06 8.85 8.96 19.7 10.87 29.54 6.08 9.17-4.46 13.92-14.3 11.83-26.9-1.68-10.1-5.06-19.93-6.64-30.05-1.34-8.6-1.26-17.42-1.69-26.15-.33-6.8.1-13.7-.84-20.4-.87-6.3-5.1-10.58-11.49-11.93-6.48-1.37-11.42 1.68-15.38 6.5-1.7 2.06-2.94 4.5-4.51 6.68-5.25 7.3-11.02 14.26-15.68 21.9-3.94 6.45-6.62 13.67-8.76 18.2M1487.34 647.73c.7-14.3-3.7-25.98-16.57-33.75-3.26-1.97-5.85-5.17-8.46-8.07-3.12-3.46-5.77-7.33-8.9-10.78-5.08-5.61-11.02-9.14-18.91-6.11-6.57 2.52-10.18 9.12-9.54 18.21.31 4.36 1.12 8.8 2.45 12.96 3.91 12.23 3.74 24.57 2.47 37.15a157.2 157.2 0 0 0-.68 25.68c.61 9.63 4.88 17.73 14.8 20.84 10.33 3.24 19.31.45 26.66-7.6 9.2-10.11 15.8-29.1 16.68-48.53"/><path fill="#c0ebf5" d="M1374.29 441.52c1.29 1.21 2.64 1.87 2.85 2.78 1.43 6.36 5.5 10.04 11.39 12.25.8.3 1.78 2.41 1.48 2.83-.72 1.02-2.11 2.08-3.3 2.17-6.22.48-16.22-10.6-14.95-16.5.25-1.14 1.46-2.08 2.53-3.53m5.32-48.88c-15.43.08-29.32-5.47-42.56-15.4-2.58 9.37-.7 16.96 5.5 23.28 7.18 7.34 15.91 9.21 25.66 5.87 1.38-.47 2.6-1.7 3.97-1.83 2.68-.27 5.42 0 8.13.03-1.56 2.4-2.56 5.7-4.76 7.06-13.08 8.05-18.05 18.04-15.23 31.97 2.9 14.3 15.41 26.44 28.91 27.74 1.65.16 3.4-1.08 5.14-1.53 2.06-.55 4.16-.95 6.23-1.41.05 2.23.23 4.47.12 6.7-.27 5.24-1.9 10.74-.77 15.63 2.11 9.16 10.64 14.03 21 12.88v-39.5c-2.5.2-5.55.85-8.5.53-2.21-.23-4.28-1.73-6.42-2.67 1.48-1.66 2.7-3.75 4.52-4.87 1.78-1.1 4.16-1.21 5.8-1.63-3.98-11.19-9.14-21.88-11.44-33.15-2.3-11.33-1.76-23.25-2.47-34.93-4.45 2.22-11.78 1.96-13.81 10-.25.97-3.55 2.3-4.03 1.87-1.8-1.57-2.99-3.82-5-6.64M1788.69 412.85l-6.34 8.27c-.79-1.3-2.51-2.93-2.19-3.82 1.2-3.26 3.06-6.27 4.68-9.38l3.85 4.93m-27.73 26.41-5.62-3.68c1.47-1.22 2.77-2.78 4.43-3.6 4.72-2.31 9.55-4.43 14.43-6.4 1.69-.67 3.66-.67 5.5-.99-.56 1.88-.53 4.7-1.77 5.46-5.45 3.4-11.27 6.19-16.97 9.21m19.22-48.9-48.92-3.53c-1.8 9.46-4.12 19.94-5.64 30.54-.49 3.37 1.28 7.03 1.77 10.6.41 3.01.47 6.09.68 9.14l-9.17-3.36c-.03.65-.58 2.6-.15 4.29 3.24 12.54 6.85 25 9.96 37.57.94 3.82 2.74 5.13 6.49 5.27a21.09 21.09 0 0 0 21.94-18.52c.43-3.51-.33-5.26-4.17-6.16-4.95-1.16-9.95-2.81-14.36-5.27-2.03-1.14-2.7-4.7-3.98-7.16 2.62.12 5.64-.58 7.79.48 22.08 10.88 46.64.6 52.93-22.43 1.69-6.17 1.76-11.11-4.52-15.93-4.86-3.73-7.37-10.52-10.65-15.53M1728.84 126.41c-.27 8.66-7.63 16.37-14.78 16.5-1.6.04-3.25-1.33-4.87-2.05 1.17-1.22 2.17-3.19 3.57-3.53 5.6-1.38 9.05-4.36 10.2-10.2.3-1.47 2.24-2.62 3.42-3.9l2.46 3.18m-34.01 30.4c-2.18-1.8-4.92-3.32-6.51-5.62-1.2-1.74-.95-4.5-1.34-6.8 2.14.27 4.91-.23 6.3.93 8.76 7.3 18.37 9.21 28.85 4.98 13.13-5.29 19.48-20.35 14.58-33.59-5-13.48-20.15-20.67-33.65-15.9-1.84.65-4.39 1.23-5.15 2.63-4.42 8.13-8.46 16.47-12.5 24.8-1.15 2.36-1.91 4.9-2.85 7.35l-8.33-6.04c-10.13.86-19.8-3.14-25.82-14.67-.77-1.49-4.49-2.61-6.4-2.14-9.04 2.26-15.01 11.94-13.91 21.6 1.03 9.1 9.04 16.78 18.1 17.6 3.97.35 6.56-.3 6.87-5.14.19-2.82 1.2-5.86 2.72-8.24.9-1.42 3.49-1.77 5.32-2.6.63 1.87 1.53 3.7 1.78 5.62.14 1.05-.87 2.23-1.24 3.4-2.94 9.25 1.54 18.83 10.39 22.29 9.2 3.6 18.52-.58 22.79-10.47M1825.3 217.45c4.14 7.95 9.31 10.98 17.13 9.78 6.5-1 11-4.46 12.8-11.44-1.2-.09-1.92-.02-2.57-.21-2.9-.85-5.78-1.78-8.67-2.68 2.2-1.7 4.65-3.18 6.56-5.17 2.86-2.98 6.98-6.08 7.51-9.59.47-3.12-2.4-7.87-5.23-10.12-4.8-3.83-8.2-1.75-9.99 4.28-.5 1.66-2.66 2.82-4.05 4.21-1.36-1.74-3.46-3.28-3.97-5.24-2.48-9.5-7.55-14.44-15.77-14.66a15.94 15.94 0 0 0-15.87 10.8c-2.58 7.1-.5 13.08 4.9 17.91 5.43 4.87 12.9 5.25 19.11 1.3 1.24-.78 2.17-2.3 3.46-2.65 2.02-.53 4.22-.34 6.34-.46-.35 2.17.04 5.11-1.22 6.36-2.9 2.85-6.61 4.88-10.48 7.58M1322.9 164.57c1.47 1.39 2.42 2.06 3.08 2.95 2.1 2.87 4.16 5.78 6.1 8.77.6.93 1.36 2.59.96 3.15-.66.94-3.04 1.97-3.23 1.75a137.63 137.63 0 0 1-9.28-12.21c-.38-.58 1.32-2.53 2.36-4.41m14.15 24.57c12.88.09 22.96-9.7 23.15-22.46.18-12.88-10.32-23.59-23.06-23.5-12.42.07-22.85 10.57-22.89 23.03a22.9 22.9 0 0 0 22.8 22.93"/><path fill="#c0ebf5" d="M1670.82 121.2a16.06 16.06 0 0 0 16.4-16.11 16.29 16.29 0 0 0-16.12-16.52c-8.89-.09-16.36 7.27-16.48 16.24a16.26 16.26 0 0 0 16.2 16.4M1716.1 270.04c-.1-8.77-7.83-16.36-16.59-16.29-8.77.07-16.32 7.82-16.18 16.61a16.13 16.13 0 0 0 16.51 16.07 16.33 16.33 0 0 0 16.26-16.4M1858.38 351.09c9.17 0 16.2-7.05 16.2-16.27-.01-9.05-7.31-16.4-16.26-16.35-8.87.05-16.4 7.58-16.38 16.4 0 8.95 7.38 16.22 16.44 16.22M1329.04 330.94c.07-9-7.2-16.52-16.09-16.61-8.84-.1-16.38 7.34-16.48 16.25a16.25 16.25 0 0 0 16.12 16.48 16.24 16.24 0 0 0 16.45-16.12M1823.08 387.83c-.68 1.68-1.47 4.52-2.98 6.91-.64 1.02-2.79 1.08-4.25 1.57-.29-1.43-.91-2.9-.78-4.3.28-3.06.77-6.12 1.53-9.1.35-1.39 1.51-2.57 2.31-3.85 1.17 1.06 2.69 1.92 3.4 3.22.66 1.19.45 2.85.77 5.55m-4.82-17.42-28.07 17.1c.04 8.61 5.46 15.17 14.77 17 8.94 1.75 17.78-3.33 21.07-12.1 3.26-8.68.07-17.1-7.77-22"/><path fill="#fff" d="M1484.6 502.74c-1.15 4.44-1.46 9.4-3.73 13.2-1.72 2.88-5.87 5.72-9.06 5.87-2.7.13-7.05-3.06-8.1-5.78-2.13-5.57-3.12-11.78-3.48-17.8-.3-4.94-.43-10.99 5.84-12.97 6.84-2.15 12.18 1.4 15.72 6.78 1.86 2.82 1.87 6.85 2.8 10.7m6.13-1.17c.56-9.38-4.3-15.24-11.37-19.68-11.06-6.97-23.46-1.94-24.47 10.97-.67 8.47 1.31 17.41 3.53 25.76 1.58 5.94 6.65 9.56 13.48 9.4 6.85-.17 12.03-3.45 14.5-9.55 2.16-5.34 2.94-11.25 4.33-16.9M1689.55 487.72c-.35 2.72.06 6.06-1.27 8.41-1.98 3.5-4.9 8.34-7.98 8.8-3.24.47-8.75-2.7-10.39-5.8-2.85-5.4-4.18-11.88-4.86-18.06-.64-5.76 6.52-12.83 12.38-13.45 7.7-.83 9.22 4.98 10.7 10.47.81 3.04.94 6.26 1.42 9.63m5.98-1.62c-.92-3.99-1.59-9.39-3.42-14.36-3.44-9.36-12.5-12.45-21.43-7.87-8.05 4.14-12.98 12.8-11.45 21.68a62.87 62.87 0 0 0 4.9 15.98c3.37 7.14 10.69 10.8 17.38 9.67 7.99-1.36 11.18-7.27 12.82-14.28.72-3.07.72-6.3 1.2-10.82M1379.73 121.5l16.97-5.87c-3.96-11.14-9.17-21.15-18.84-27.83-1.95-1.35-6.83.3-9.55 1.92-1.23.74-1.39 5.18-.48 7.26 3.58 8.21 7.77 16.15 11.9 24.53M1738.64 102.27c2.57 5.8 4.4 10.31 6.58 14.66.8 1.58 2.4 2.74 3.62 4.1 1.25-1.22 2.92-2.21 3.67-3.68 3.45-6.77 6.94-13.54 9.77-20.57.86-2.14.5-6.68-.77-7.36-2.78-1.48-7.79-2.8-9.6-1.34-5.23 4.2-9.33 9.8-13.27 14.19M1582.3 465.73l-8.29 7.94c2.66 1.85 5.38 5.24 7.96 5.15 2.68-.1 5.24-3.57 7.86-5.57l-7.53-7.52"/><path fill="#c0ebf5" d="m1284.72 455.57 3.94-5.46c1.1 1.37 2.33 2.65 3.28 4.12a84.39 84.39 0 0 1 4.65 7.98c.67 1.34.73 3 1.06 4.5-1.76-.08-4.3.55-5.13-.38-2.83-3.14-5.04-6.83-7.8-10.76m17.97-26.7c-13.09.19-23.85 11.15-23.75 24.18.1 13.01 11.06 23.84 24.13 23.84 13.32 0 24.55-11.43 24.14-24.6a24.3 24.3 0 0 0-24.52-23.42M1629.53 730.76l-5.96-4.64c3.2-1.63 6.33-3.49 9.68-4.72.82-.3 2.4 1.44 3.63 2.25l-7.35 7.1m-1.93-32.15a17.43 17.43 0 0 0-17.19 17.36c0 9.75 8.17 17.68 17.93 17.4 9.38-.28 17.14-8.45 16.9-17.77a17.56 17.56 0 0 0-17.64-16.99M1806.32 503.23c-.12-8.34-7.53-15.48-15.79-15.2-8.08.26-14.9 7.21-14.99 15.26a15.6 15.6 0 0 0 15.42 15.52c8.4-.04 15.49-7.21 15.36-15.58M1840.9 444.36c-.19-6.55-5.37-11.41-12.02-11.26a11.5 11.5 0 0 0-11.3 11.98c.2 6.42 5.7 11.65 12.03 11.44a11.84 11.84 0 0 0 11.28-12.16M1271.75 188.31a9.65 9.65 0 0 0-9.64-9.84c-5.18.05-10.04 4.84-9.6 9.96.46 5.57 3.59 8.98 9.37 9.3 5.51.32 9.83-3.9 9.87-9.42M1362.04 564.48c4.75-.7 8.31-3.38 8.52-9.27.2-5.45-4.33-10.13-9.61-9.61-5.59.54-8.84 3.8-8.9 9.6-.06 5.15 4.19 9.3 10 9.28"/><path fill="#050301" d="M1802.49 241.26c-5.65-14.48-11-28.56-16.77-42.45-.61-1.46-3.8-1.85-5.78-2.73-.32 2.14-1.45 4.54-.85 6.4 4.4 13.64 9.04 27.22 13.88 40.72.66 1.84 2.91 3.1 4.42 4.63l5.1-6.57M1777.6 184.94c-4.74-4.14-9.41-8.35-14.3-12.3-.37-.3-2.77 1-3.26 2.03a4.41 4.41 0 0 0 .48 3.92c2.96 3.54 5.94 7.18 9.54 9.97 1.32 1.02 4.38-.2 6.64-.4l.9-3.22M1616.6 444.34c3.06-4.02 6.45-6.56 6.14-8.52-.4-2.5-3.78-4.51-5.88-6.74-2.09 1.98-5.77 3.89-5.85 5.94-.1 2.48 2.86 5.08 5.58 9.32M1515.47 452.27c2.7-4.52 5.58-7.21 5.37-9.63-.19-2.08-3.9-3.85-6.04-5.75-1.99 2.3-5.2 4.42-5.56 6.95-.27 1.94 3.07 4.38 6.23 8.43M1602.63 394.07c-2.58 4.54-5.35 7.24-5.12 9.67.2 2.1 3.8 3.86 5.9 5.78 1.96-2.3 5.15-4.45 5.47-6.96.25-1.96-3.05-4.38-6.25-8.5M1526.25 401.16c-2.8 4.29-5.94 7.04-5.48 8.9.6 2.47 4.02 4.25 6.23 6.33 1.85-2.19 5.02-4.29 5.17-6.6.14-2.14-2.91-4.5-5.92-8.63M1628.85 399.56c-3.12 4.01-6.51 6.55-6.16 8.37.48 2.48 3.8 4.42 5.9 6.6 2.03-2.01 5.4-3.84 5.69-6.08.27-2.11-2.67-4.65-5.43-8.9M1547.2 432.59c-4.22-3.04-6.61-6.09-8.99-6.07-2.01.01-5.87 3.9-5.58 5.46.46 2.49 3.38 5.65 5.84 6.26 1.78.45 4.48-2.75 8.73-5.65M1592.85 434.9c2.91-4.05 5.94-6.43 5.76-8.53-.2-2.25-3.41-4.23-5.3-6.33-2.17 2.07-5.53 3.86-6.11 6.3-.43 1.8 2.79 4.47 5.65 8.57M1510.43 417.55c-3.93-3.06-6.18-6.18-8.33-6.1-2.25.07-4.4 3.2-6.6 5 2 2.26 3.67 5.71 6.11 6.38 1.81.5 4.61-2.6 8.82-5.28M1606.25 516.66c-3.72-.71-6.4-2.16-7.97-1.38-16.38 8.13-32.88 8.77-49.9 2.25-1.4-.53-3.66 1.23-5.52 1.92.96 1.75 1.46 4.22 2.93 5.14 12.74 7.9 44.15 6.38 55.98-2.53 1.24-.94 2.05-2.44 4.48-5.4M1640.57 646.28c8.93-.84 15.94-7.78 16.2-15.1.05-1.53-1.43-3.1-2.2-4.66-1.22 1.19-3.22 2.2-3.53 3.59-1.23 5.64-4.28 8.93-9.99 10.25-1.53.36-2.62 2.6-3.92 3.96l3.44 1.96M1613.28 621.53l-9.98 12.48c1.03.83 2.88 2.45 2.98 2.35 3.37-3.45 6.65-7.02 9.7-10.77.23-.3-1.34-2.06-2.7-4.06"/><path fill="#231f20" d="M1374.29 441.52c-1.07 1.45-2.28 2.39-2.53 3.53-1.27 5.9 8.73 16.98 14.94 16.5 1.2-.09 2.59-1.15 3.3-2.17.3-.42-.68-2.53-1.47-2.83-5.9-2.2-9.96-5.89-11.4-12.25-.2-.91-1.55-1.57-2.84-2.78"/><path fill="#050301" d="M1760.96 439.26c5.7-3.02 11.52-5.82 16.97-9.2 1.24-.78 1.21-3.6 1.77-5.47-1.84.32-3.81.32-5.5 1-4.88 1.96-9.7 4.08-14.43 6.4-1.66.81-2.96 2.37-4.43 3.59l5.62 3.68M1788.69 412.85l-3.85-4.93c-1.62 3.1-3.49 6.12-4.68 9.38-.32.89 1.4 2.52 2.19 3.82l6.34-8.27M1728.84 126.41l-2.46-3.19c-1.18 1.3-3.12 2.44-3.41 3.9-1.16 5.85-4.62 8.83-10.21 10.2-1.4.35-2.4 2.32-3.57 3.54 1.62.72 3.26 2.09 4.87 2.06 7.15-.14 14.51-7.85 14.78-16.5M1322.9 164.57c-1.05 1.88-2.75 3.83-2.37 4.41 2.82 4.26 6 8.28 9.28 12.2.2.23 2.57-.8 3.23-1.74.4-.56-.36-2.22-.96-3.15-1.94-2.99-4-5.9-6.1-8.77-.66-.9-1.61-1.56-3.09-2.95M1823.08 387.83c-.32-2.7-.1-4.36-.76-5.55-.72-1.3-2.24-2.16-3.4-3.22-.8 1.28-1.97 2.46-2.32 3.85a58.98 58.98 0 0 0-1.53 9.1c-.13 1.4.5 2.87.78 4.3 1.46-.5 3.6-.55 4.25-1.57 1.5-2.39 2.3-5.23 2.98-6.91M1481.66 508.33l-5.65 6.02c-1.35-2.04-3.58-4-3.8-6.16-.17-1.75 2.08-3.74 3.25-5.62l6.2 5.76m2.93-5.59c-.93-3.85-.94-7.88-2.8-10.7-3.54-5.38-8.88-8.93-15.72-6.78-6.27 1.99-6.13 8.03-5.84 12.98.36 6.01 1.35 12.22 3.49 17.8 1.04 2.7 5.39 5.9 8.09 5.77 3.2-.15 7.34-3 9.07-5.87 2.26-3.8 2.57-8.76 3.71-13.2M1676.36 492l4.63-6.1c1.52 1.85 4.12 3.6 4.26 5.54.15 2.02-2.08 4.2-3.28 6.32l-5.61-5.77m13.19-4.27c-.48-3.37-.61-6.6-1.43-9.63-1.47-5.49-2.98-11.3-10.7-10.47-5.85.62-13.01 7.69-12.37 13.45.68 6.18 2 12.67 4.86 18.07 1.64 3.1 7.15 6.26 10.4 5.78 3.07-.45 5.99-5.3 7.97-8.79 1.34-2.35.92-5.7 1.27-8.4M1284.72 455.57c2.76 3.93 4.97 7.62 7.8 10.76.82.93 3.37.3 5.13.39-.33-1.52-.39-3.17-1.06-4.51-1.36-2.75-2.99-5.39-4.65-7.98-.95-1.47-2.18-2.75-3.28-4.12l-3.94 5.46M1629.53 730.76l7.35-7.1c-1.23-.82-2.81-2.56-3.63-2.26-3.35 1.23-6.47 3.1-9.68 4.72l5.96 4.64"/><path fill="#fff" d="m1481.66 508.33-6.2-5.76c-1.17 1.88-3.42 3.87-3.24 5.62.21 2.16 2.44 4.12 3.8 6.16l5.64-6.02M1676.36 492l5.61 5.76c1.2-2.11 3.43-4.3 3.28-6.32-.14-1.93-2.74-3.7-4.26-5.53l-4.63 6.08"/><path fill="#050301" d="M1389.81 230.27c-.54.63-.81 1.53-.81 2.7 0 2.96.81 4.91 2.45 5.85 1.64.93 3.4 1.4 5.27 1.4a7 7 0 0 0 4.15-1.29 4.19 4.19 0 0 0 1.82-3.62c0-1.33-.43-2.72-1.29-4.16a8.17 8.17 0 0 0-2.7-2.98 5.93 5.93 0 0 0-3.03-.82c-2.27 0-4.22.97-5.86 2.92m-2.92-26.44c0 6.16.7 10.6 2.1 13.34 1.1 2.18 3 3.27 5.74 3.27 1.17 0 2.3-.23 3.4-.7 2.18-1.01 3.27-2.34 3.27-3.98 0-.62-.23-1.17-.7-1.63-1.4-1.96-2.15-4.5-2.23-7.61-.23-3.83-.54-6.28-.93-7.38-.4-1.09-.59-2.34-.59-3.74 0-1.02.18-2.56.53-4.62.35-2.07.53-3.65.53-4.74 0-1.1-.06-2.15-.18-3.16-.12-1.02-.53-1.52-1.23-1.52-1.72-.47-3.24-.7-4.56-.7-2.5 0-4.06.93-4.68 2.8-.63 2.26-.94 5-.94 8.2 0 1.32.08 3.35.24 6.08.15 2.73.23 4.76.23 6.09M1470.21 204.65c1.25 7.33 4.49 13.34 9.72 18.02 4.29 3.82 7.21 6.28 8.77 7.37 3.67 2.58 7.06 3.86 10.18 3.86 1.64 0 3.2-.35 4.69-1.05 1.17-.47 1.75-1.4 1.75-2.8 0-.56-.08-1.14-.23-1.76-.94-2.81-2.97-5-6.09-6.56-5.23-2.5-8.07-3.9-8.54-4.21-5.78-4.37-8.82-9.05-9.13-14.05-.31-4.2.5-7.84 2.46-10.88a10.08 10.08 0 0 1 4.8-3.86c1.94-.63 3.93-1.29 5.96-1.99.7-.31 1.45-.47 2.23-.47 1.71 0 4 1.11 6.84 3.34 2.85 2.22 4.98 3.37 6.38 3.45 1.87.15 2.81-.7 2.81-2.58 0-2.02-.7-4.13-2.1-6.31-3.05-4.69-7.77-7.03-14.17-7.03-3.35 0-7.21.63-11.58 1.88a19.45 19.45 0 0 0-11.06 7.84 23.1 23.1 0 0 0-4.04 13.46c0 1.4.12 2.84.35 4.33M1519.71 217.28c.08 2.34-.29 5.84-1.1 10.48-.83 4.64-1.24 7.97-1.24 10 0 2.89.55 5.43 1.64 7.61 1.25 2.5 3.4 3.75 6.44 3.75 3.12 0 4.8-1.64 5.03-4.92.08-.47 0-1.29-.23-2.46a15.87 15.87 0 0 1-.35-2.22v-25.05c-.16-2.73-.12-6.35.11-10.88.31-5.38.47-8.93.47-10.65 0-6.32-.98-11.58-2.92-15.8-.86-1.95-2.42-2.92-4.69-2.92a8.8 8.8 0 0 0-4.39 1.23c-1.44.81-2.16 2.32-2.16 4.5 0 .63.12 1.25.36 1.87 1.46 4.84 2.3 10.7 2.55 17.56l.48 17.9M1551.31 201.25c6.94.31 11.16 2.77 12.64 7.37.31.63.47 1.25.47 1.88 0 1.63-.86 2.96-2.58 3.98a11.07 11.07 0 0 1-5.73 1.52 7.9 7.9 0 0 1-3.98-.94c-2.26-1.17-3.4-3.63-3.4-7.37 0-4.14.87-6.28 2.58-6.44m-12.75 5.97c-.08 5.3 1.48 9.73 4.68 13.28 3.2 3.55 7.3 5.33 12.29 5.33 5.3 0 10-2.01 14.1-6.03 4.1-4.02 6.1-8.72 6.02-14.1-.7-2.19-3.62-4.8-8.77-7.84-6.4-3.83-9.95-6.09-10.65-6.79-1.33-.63-2-1.29-2-1.99 0-1.25.87-2.36 2.58-3.34 1.72-.97 3.24-1.46 4.57-1.46 2.57 0 6.28 1.25 11.11 3.75a5.24 5.24 0 0 0 2.23-4.45c0-1.48-.47-2.85-1.4-4.1a5.46 5.46 0 0 0-3.63-2.22c-5-.78-8.16-1.17-9.48-1.17-2.66 0-5.04.47-7.14 1.4-9.29 4.14-14.12 14.05-14.51 29.73M1601.17 194.46c0-1.01-.36-2.14-1.06-3.39-.7-1.25-1.44-1.87-2.22-1.87-1.25 0-2.25.54-2.99 1.64-.74 1.09-1.03 2.1-.87 3.04.3 1.64 1.64 2.46 3.98 2.46 2.1 0 3.16-.63 3.16-1.88m2.57-8.54c.23 1.1.74 3.04 1.52 5.85a18.4 18.4 0 0 1 1.05 5.38c0 1.64-.35 3.28-1.05 4.92-3.98-.86-7.92-1.68-11.82-2.46-4.6-1.33-6.94-4.05-7.02-8.19-.08-1.8 1.64-3.32 5.15-4.56a25.28 25.28 0 0 1 9.13-1.76c1.8 0 2.8.27 3.04.82m2.16-14.22c-.66.43-1.34 1.3-2.04 2.63-.63 1.1-1.21 1.64-1.76 1.64l-12.52 2.11c-4.6 1.17-7.88 3.43-9.83 6.79-1.25 1.64-1.87 3.82-1.87 6.55 0 3.98.97 7.26 2.92 9.83 4.68 6.32 11.55 9.48 20.6 9.48 3.9 0 5.77-.12 5.62-.35.62.92.93 2.23.93 3.92 0 2-.58 3.13-1.75 3.4s-2.34.4-3.51.4c-2.03 0-4.28-.47-6.73-1.42-2.46-.95-4.86-1.84-7.2-2.68-.4-.15-.74-.23-1.05-.23-1.25 0-2.27.9-3.05 2.7-.62 1.4-.93 2.92-.93 4.56 0 1.01.12 1.64.35 1.87a30.23 30.23 0 0 0 17.44 5.27c6.78 0 11.35-2.42 13.69-7.26a20.1 20.1 0 0 0 1.87-8.66c0-2.57-.5-6.2-1.52-10.88-1.17-5.15-1.87-8.9-2.1-11.24-.4-5.85-.79-9.83-1.18-11.93-.93-4.76-2.42-7.14-4.44-7.14-.63 0-1.27.21-1.94.64M1663.07 226.53c.4-.94-.52-2.13-2.75-3.57-2.22-1.45-4.03-1.97-5.44-1.58-1.17.31-1.75 1.33-1.75 3.04 0 2.34.66 4.72 1.98 7.14.32.55.78.82 1.4.82 1.1 0 2.35-.7 3.75-2.1 1.4-1.41 2.34-2.66 2.81-3.75m-12.17 10.41c0-1.63-.55-3.74-1.64-6.31-1.32-2.97-2.65-4.45-3.98-4.45-1.17 0-2.1 1.36-2.8 4.1-.08.3-.36 2.14-.82 5.5-.32 2.1 1.36 3.15 5.03 3.15 2.8 0 4.21-.66 4.21-1.99m-15.8-.11c.7-.08 1.43-1.23 2.17-3.45a19.86 19.86 0 0 0 1.1-6.27c0-2.26-.7-3.39-2.1-3.39-1.71 0-4.1 2.46-7.14 7.37-.23.47-.35.94-.35 1.4 0 1.18.74 2.23 2.23 3.17 1.48.93 2.84 1.32 4.1 1.17m-12.88-37.22c0 1.25-.1 3.24-.3 5.97-.19 2.73-.29 4.76-.29 6.09 0 2.96.36 5.38 1.06 7.25.7 1.64 2.18 2.46 4.44 2.46 2.58 0 4.18-1.02 4.8-3.04a5.2 5.2 0 0 0 .24-1.64c0-.78-.22-1.97-.65-3.57-.43-1.6-.64-2.83-.64-3.69.7-.62 1.05-1.1 1.05-1.4 2.65 4.37 4.4 7.02 5.27 7.96 2.18 2.57 4.64 3.86 7.37 3.86 1.01 0 2.07-.16 3.16-.47 2.73-4.53 4.53-10.18 5.39-16.97.23-1.95.58-8 1.05-18.14.86-3.43.35-5.42-1.52-5.97-2.1-.62-3.75-.93-4.92-.93-1.8 0-2.8.66-3.04 1.99-.4 2.96-.74 7.8-1.05 14.5-.24 6.1-.7 10.81-1.4 14.17-2.2-2.42-4.22-6.13-6.1-11.12-2.41-6.24-4.13-10.24-5.14-12a4.95 4.95 0 0 0-4.57-2.63c-2.1 0-3.47 1.21-4.1 3.63-.38 1.71-.54 3.98-.46 6.79.23 5.07.35 7.37.35 6.9"/><path fill="#ce1d2a" d="M1462.6 201.31a82.7 82.7 0 0 0-1.87-3.21c-5.1-8.32-10.6-16.35-15.65-24.72-.13-.23-.29-.47-.54-.57-.28-.1-.59.03-.86.15-14.57 6.57-51.76 35.78-31.58 53.45 4.4 3.86 11.56 2.87 16.19-.72 4.62-3.6 7.25-9.14 9.46-14.56a45.84 45.84 0 0 0 6.59 13.93c3.22 4.6 9.5 6.25 14.87 4.98 13.24-3.12 7.83-20.7 3.4-28.73"/></g></svg>